<svg xmlns="http://www.w3.org/2000/svg" xmlns:xlink="http://www.w3.org/1999/xlink" width="500" zoomAndPan="magnify" viewBox="0 0 375 374.999991" height="500" preserveAspectRatio="xMidYMid meet" version="1.0"><defs><g/><clipPath id="439c10d393"><path d="M 91 64.914062 L 284 64.914062 L 284 310.164062 L 91 310.164062 Z M 91 64.914062 " clip-rule="nonzero"/></clipPath><clipPath id="830be59cc7"><path d="M 185 101.289062 L 190 101.289062 L 190 115 L 185 115 Z M 185 101.289062 " clip-rule="nonzero"/></clipPath><clipPath id="67ee26a02c"><path d="M 218 144 L 231.363281 144 L 231.363281 149 L 218 149 Z M 218 144 " clip-rule="nonzero"/></clipPath><clipPath id="ed8f002da5"><path d="M 143.613281 144 L 157 144 L 157 149 L 143.613281 149 Z M 143.613281 144 " clip-rule="nonzero"/></clipPath><clipPath id="b736ccc515"><path d="M 24.277344 187.5 L 122 187.5 L 122 248.25 L 24.277344 248.25 Z M 24.277344 187.5 " clip-rule="nonzero"/></clipPath><clipPath id="6ba0d14f55"><path d="M 253 187.5 L 350.527344 187.5 L 350.527344 248.25 L 253 248.25 Z M 253 187.5 " clip-rule="nonzero"/></clipPath><clipPath id="0d90c10d0d"><path d="M 87 192 L 122 192 L 122 248.25 L 87 248.25 Z M 87 192 " clip-rule="nonzero"/></clipPath><clipPath id="01066a9bcb"><path d="M 253 192 L 288 192 L 288 248.25 L 253 248.25 Z M 253 192 " clip-rule="nonzero"/></clipPath><clipPath id="62169b301b"><path d="M 178.15625 255.058594 L 196.90625 255.058594 L 196.90625 273.058594 L 178.15625 273.058594 Z M 178.15625 255.058594 " clip-rule="nonzero"/></clipPath><clipPath id="0b1181ea2a"><path d="M 161.835938 248.308594 L 174.585938 248.308594 L 174.585938 260.308594 L 161.835938 260.308594 Z M 161.835938 248.308594 " clip-rule="nonzero"/></clipPath><clipPath id="ab721a54f6"><path d="M 200.59375 248.308594 L 213.34375 248.308594 L 213.34375 260.308594 L 200.59375 260.308594 Z M 200.59375 248.308594 " clip-rule="nonzero"/></clipPath></defs><rect x="-37.5" width="450" fill="#ffffff" y="-37.499999" height="449.999989" fill-opacity="1"/><rect x="-37.5" width="450" fill="#ffffff" y="-37.499999" height="449.999989" fill-opacity="1"/><rect x="-37.5" width="450" fill="#ffffff" y="-37.499999" height="449.999989" fill-opacity="1"/><path fill="#38b6ff" d="M 261.726562 93.351562 C 297.292969 207.1875 197.082031 285.132812 187.863281 292.035156 L 187.519531 292.285156 C 187.425781 292.226562 187.328125 292.152344 187.175781 292.035156 C 177.941406 285.132812 77.726562 207.1875 113.3125 93.351562 C 113.3125 93.351562 166.007812 78.589844 187.519531 79.488281 C 209.03125 78.605469 261.726562 93.351562 261.726562 93.351562 Z M 261.726562 93.351562 " fill-opacity="1" fill-rule="nonzero"/><g clip-path="url(#439c10d393)"><path fill="#38b6ff" d="M 275.609375 89.027344 L 273.257812 81.496094 L 265.667969 79.351562 C 260.371094 77.878906 213.410156 64.914062 189.488281 64.914062 C 188.820312 64.914062 188.152344 64.933594 187.519531 64.953125 C 186.871094 64.933594 186.21875 64.914062 185.53125 64.914062 C 161.648438 64.914062 114.667969 77.878906 109.371094 79.351562 L 101.78125 81.496094 L 99.429688 89.027344 C 90.558594 117.425781 88.816406 146.089844 94.265625 174.242188 C 98.644531 196.902344 107.6875 219.199219 121.152344 240.558594 C 144.113281 277.042969 172.949219 299.550781 178.496094 303.683594 L 178.550781 303.738281 C 178.550781 303.738281 179.105469 304.140625 179.238281 304.238281 L 187.789062 310.164062 L 196.542969 303.683594 C 202.089844 299.550781 230.925781 277.042969 253.890625 240.558594 C 267.332031 219.199219 276.375 196.882812 280.773438 174.242188 C 286.203125 146.089844 284.484375 117.425781 275.609375 89.027344 Z M 273.621094 172.824219 C 269.394531 194.605469 260.695312 216.082031 247.75 236.675781 C 225.457031 272.074219 197.558594 293.855469 192.203125 297.851562 L 187.652344 301.214844 L 183.390625 298.25 C 183.273438 298.195312 182.835938 297.851562 182.835938 297.851562 C 177.480469 293.835938 149.582031 272.074219 127.289062 236.675781 C 114.324219 216.082031 105.644531 194.605469 101.417969 172.824219 C 96.179688 145.902344 97.859375 118.421875 106.371094 91.191406 L 107.554688 87.421875 L 111.359375 86.351562 C 113.40625 85.777344 162.203125 72.203125 185.53125 72.203125 C 186.21875 72.203125 186.886719 72.203125 187.519531 72.238281 C 188.152344 72.203125 188.820312 72.203125 189.488281 72.203125 C 212.816406 72.203125 261.632812 85.777344 263.679688 86.351562 L 267.484375 87.421875 L 268.667969 91.191406 C 277.179688 118.421875 278.839844 145.902344 273.621094 172.824219 Z M 273.621094 172.824219 " fill-opacity="1" fill-rule="nonzero"/></g><path fill="#ffffff" d="M 187.863281 292.035156 L 187.519531 292.285156 C 187.425781 292.226562 187.328125 292.152344 187.175781 292.035156 C 177.941406 285.132812 77.726562 207.1875 113.3125 93.351562 C 113.3125 93.351562 166.007812 78.589844 187.519531 79.488281 C 209.03125 78.605469 261.726562 93.351562 261.726562 93.351562 C 297.292969 207.1875 197.082031 285.132812 187.863281 292.035156 Z M 187.863281 292.035156 " fill-opacity="1" fill-rule="nonzero"/><path fill="#38b6ff" d="M 187.863281 292.035156 L 187.519531 292.285156 C 187.425781 292.226562 187.328125 292.152344 187.175781 292.035156 C 177.941406 285.132812 77.726562 207.1875 113.3125 93.351562 C 113.3125 93.351562 166.007812 78.589844 187.519531 79.488281 C 209.03125 78.605469 261.726562 93.351562 261.726562 93.351562 C 297.292969 207.1875 197.082031 285.132812 187.863281 292.035156 Z M 187.863281 292.035156 " fill-opacity="1" fill-rule="nonzero"/><path fill="#ffffff" d="M 198.992188 180.804688 L 176.414062 180.804688 L 176.414062 177.785156 C 176.414062 171.851562 174.175781 165.90625 170.09375 161.046875 C 166.632812 156.914062 164.738281 151.679688 164.738281 146.285156 C 164.738281 133.628906 175.046875 123.320312 187.703125 123.320312 C 200.371094 123.320312 210.679688 133.628906 210.679688 146.285156 C 210.679688 151.679688 208.773438 156.914062 205.324219 161.046875 C 201.246094 165.90625 199.003906 171.851562 199.003906 177.785156 L 199.003906 180.804688 Z M 180.011719 177.195312 L 195.378906 177.195312 C 195.527344 170.617188 198.050781 164.082031 202.535156 158.726562 C 205.445312 155.25 207.042969 150.835938 207.042969 146.285156 C 207.042969 135.613281 198.359375 126.929688 187.691406 126.929688 C 177.019531 126.929688 168.335938 135.613281 168.335938 146.285156 C 168.335938 150.820312 169.945312 155.25 172.859375 158.726562 C 177.339844 164.082031 179.878906 170.617188 180.011719 177.195312 Z M 180.011719 177.195312 " fill-opacity="1" fill-rule="nonzero"/><path fill="#ffffff" d="M 176.347656 182.738281 L 199.058594 182.738281 L 199.058594 188.574219 L 176.347656 188.574219 Z M 176.347656 182.738281 " fill-opacity="1" fill-rule="nonzero"/><g clip-path="url(#830be59cc7)"><path fill="#ffffff" d="M 187.703125 114.597656 C 186.710938 114.597656 185.890625 113.792969 185.890625 112.785156 L 185.890625 103.5625 C 185.890625 102.558594 186.695312 101.753906 187.703125 101.753906 C 188.695312 101.753906 189.515625 102.558594 189.515625 103.5625 L 189.515625 112.796875 C 189.515625 113.792969 188.695312 114.597656 187.703125 114.597656 Z M 187.703125 114.597656 " fill-opacity="1" fill-rule="nonzero"/></g><path fill="#ffffff" d="M 204.171875 119.242188 C 203.863281 119.242188 203.554688 119.160156 203.273438 119 C 202.414062 118.503906 202.117188 117.386719 202.613281 116.527344 L 207.230469 108.542969 C 207.726562 107.683594 208.828125 107.375 209.699219 107.886719 C 210.558594 108.382812 210.855469 109.496094 210.359375 110.355469 L 205.742188 118.339844 C 205.40625 118.917969 204.789062 119.242188 204.171875 119.242188 Z M 204.171875 119.242188 " fill-opacity="1" fill-rule="nonzero"/><path fill="#ffffff" d="M 216.101562 131.496094 C 215.484375 131.496094 214.867188 131.171875 214.53125 130.59375 C 214.035156 129.734375 214.332031 128.621094 215.191406 128.125 L 223.191406 123.507812 C 224.046875 123.011719 225.164062 123.308594 225.660156 124.167969 C 226.15625 125.023438 225.859375 126.140625 225 126.636719 L 217.003906 131.253906 C 216.71875 131.414062 216.410156 131.496094 216.101562 131.496094 Z M 216.101562 131.496094 " fill-opacity="1" fill-rule="nonzero"/><g clip-path="url(#67ee26a02c)"><path fill="#ffffff" d="M 229.550781 148.082031 L 220.316406 148.082031 C 219.324219 148.082031 218.503906 147.277344 218.503906 146.269531 C 218.503906 145.277344 219.3125 144.460938 220.316406 144.460938 L 229.550781 144.460938 C 230.542969 144.460938 231.363281 145.265625 231.363281 146.269531 C 231.363281 147.265625 230.542969 148.082031 229.550781 148.082031 Z M 229.550781 148.082031 " fill-opacity="1" fill-rule="nonzero"/></g><path fill="#ffffff" d="M 223.671875 169.15625 C 223.363281 169.15625 223.054688 169.074219 222.773438 168.914062 L 214.789062 164.296875 C 213.929688 163.800781 213.632812 162.6875 214.128906 161.828125 C 214.625 160.953125 215.726562 160.660156 216.597656 161.167969 L 224.585938 165.785156 C 225.445312 166.28125 225.738281 167.398438 225.242188 168.253906 C 224.894531 168.832031 224.289062 169.15625 223.671875 169.15625 Z M 223.671875 169.15625 " fill-opacity="1" fill-rule="nonzero"/><path fill="#ffffff" d="M 171.101562 119.160156 C 170.484375 119.160156 169.867188 118.835938 169.53125 118.261719 L 164.914062 110.273438 C 164.417969 109.402344 164.710938 108.289062 165.585938 107.792969 C 166.457031 107.296875 167.558594 107.589844 168.054688 108.449219 L 172.671875 116.433594 C 173.167969 117.292969 172.871094 118.410156 172.011719 118.90625 C 171.71875 119.078125 171.410156 119.160156 171.101562 119.160156 Z M 171.101562 119.160156 " fill-opacity="1" fill-rule="nonzero"/><path fill="#ffffff" d="M 158.996094 131.414062 C 158.6875 131.414062 158.375 131.332031 158.09375 131.171875 L 150.097656 126.554688 C 149.238281 126.058594 148.941406 124.945312 149.4375 124.085938 C 149.933594 123.214844 151.035156 122.917969 151.90625 123.429688 L 159.90625 128.042969 C 160.765625 128.542969 161.0625 129.65625 160.566406 130.515625 C 160.230469 131.089844 159.625 131.414062 158.996094 131.414062 Z M 158.996094 131.414062 " fill-opacity="1" fill-rule="nonzero"/><g clip-path="url(#ed8f002da5)"><path fill="#ffffff" d="M 154.644531 148.070312 L 145.425781 148.070312 C 144.417969 148.070312 143.613281 147.265625 143.613281 146.269531 C 143.613281 145.277344 144.417969 144.460938 145.425781 144.460938 L 154.660156 144.460938 C 155.652344 144.460938 156.472656 145.265625 156.472656 146.269531 C 156.457031 147.265625 155.652344 148.070312 154.644531 148.070312 Z M 154.644531 148.070312 " fill-opacity="1" fill-rule="nonzero"/></g><path fill="#ffffff" d="M 151.222656 169.289062 C 150.605469 169.289062 149.988281 168.96875 149.652344 168.390625 C 149.15625 167.519531 149.453125 166.417969 150.308594 165.921875 L 158.308594 161.304688 C 159.183594 160.808594 160.28125 161.101562 160.78125 161.960938 C 161.277344 162.820312 160.980469 163.933594 160.121094 164.429688 L 152.121094 169.046875 C 151.839844 169.207031 151.53125 169.289062 151.222656 169.289062 Z M 151.222656 169.289062 " fill-opacity="1" fill-rule="nonzero"/><g clip-path="url(#b736ccc515)"><path fill="#545454" d="M 114.679688 248.148438 C 83.21875 241.859375 53.085938 231.65625 24.277344 217.542969 C 35 216.804688 45.464844 215.574219 55.667969 213.851562 C 49.601562 205.238281 44.027344 196.488281 38.949219 187.59375 C 65.167969 200.4375 92.589844 209.71875 121.21875 215.445312 C 119.039062 226.351562 116.859375 237.25 114.679688 248.148438 Z M 114.679688 248.148438 " fill-opacity="1" fill-rule="nonzero"/></g><g clip-path="url(#6ba0d14f55)"><path fill="#545454" d="M 350.53125 217.542969 C 321.71875 231.65625 291.578125 241.859375 260.113281 248.148438 C 257.933594 237.253906 255.753906 226.351562 253.574219 215.445312 C 282.207031 209.722656 309.632812 200.4375 335.855469 187.59375 C 330.6875 196.308594 325.046875 204.894531 318.9375 213.339844 C 329.183594 215.230469 339.714844 216.628906 350.53125 217.542969 Z M 350.53125 217.542969 " fill-opacity="1" fill-rule="nonzero"/></g><g clip-path="url(#0d90c10d0d)"><path fill="#000000" d="M 114.679688 248.148438 C 105.136719 240.660156 96.015625 232.691406 87.316406 224.238281 C 90.460938 213.578125 93.601562 202.921875 96.746094 192.261719 C 104.488281 200.4375 112.648438 208.171875 121.230469 215.460938 C 119.046875 226.355469 116.859375 237.25 114.679688 248.148438 Z M 114.679688 248.148438 " fill-opacity="1" fill-rule="nonzero"/></g><g clip-path="url(#01066a9bcb)"><path fill="#000000" d="M 287.542969 224.429688 C 278.820312 232.820312 269.675781 240.730469 260.113281 248.152344 C 257.933594 237.257812 255.753906 226.355469 253.574219 215.449219 C 262.171875 208.230469 270.351562 200.5625 278.117188 192.453125 Z M 287.542969 224.429688 " fill-opacity="1" fill-rule="nonzero"/></g><path fill="#737373" d="M 287.488281 224.238281 C 279.371094 226.628906 271.183594 228.722656 262.917969 230.527344 C 254.652344 232.332031 246.332031 233.835938 237.957031 235.042969 C 229.585938 236.25 221.179688 237.15625 212.742188 237.761719 C 204.304688 238.367188 195.855469 238.667969 187.394531 238.667969 C 178.933594 238.667969 170.484375 238.367188 162.046875 237.761719 C 153.609375 237.15625 145.203125 236.25 136.832031 235.042969 C 128.457031 233.835938 120.136719 232.332031 111.875 230.527344 C 103.609375 228.722656 95.417969 226.628906 87.300781 224.238281 C 90.445312 213.578125 93.589844 202.921875 96.730469 192.261719 C 104.082031 194.425781 111.5 196.328125 118.988281 197.960938 C 126.472656 199.59375 134.007812 200.957031 141.59375 202.050781 C 149.179688 203.144531 156.792969 203.964844 164.433594 204.511719 C 172.078125 205.0625 179.730469 205.335938 187.394531 205.335938 C 195.058594 205.335938 202.710938 205.0625 210.355469 204.511719 C 217.996094 203.964844 225.613281 203.144531 233.195312 202.050781 C 240.78125 200.957031 248.316406 199.59375 255.804688 197.960938 C 263.289062 196.328125 270.710938 194.425781 278.058594 192.261719 C 281.207031 202.917969 284.347656 213.574219 287.488281 224.238281 Z M 287.488281 224.238281 " fill-opacity="1" fill-rule="nonzero"/><g clip-path="url(#62169b301b)"><path fill="#ffffff" d="M 187.53125 255.058594 L 189.945312 260.539062 C 190.039062 260.75 190.183594 260.929688 190.367188 261.066406 C 190.554688 261.203125 190.769531 261.285156 190.996094 261.308594 L 196.90625 261.933594 L 192.488281 265.945312 C 192.320312 266.101562 192.195312 266.296875 192.121094 266.515625 C 192.050781 266.734375 192.039062 266.96875 192.085938 267.195312 L 193.324219 273.058594 L 188.179688 270.058594 C 187.984375 269.945312 187.757812 269.882812 187.53125 269.882812 C 187.300781 269.882812 187.078125 269.945312 186.882812 270.058594 L 181.738281 273.058594 L 182.972656 267.195312 C 183.023438 266.96875 183.007812 266.734375 182.9375 266.515625 C 182.867188 266.296875 182.742188 266.101562 182.570312 265.945312 L 178.15625 261.933594 L 184.066406 261.308594 C 184.292969 261.285156 184.507812 261.203125 184.691406 261.066406 C 184.878906 260.929688 185.023438 260.75 185.117188 260.539062 Z M 187.53125 255.058594 " fill-opacity="1" fill-rule="evenodd"/></g><g clip-path="url(#0b1181ea2a)"><path fill="#ffffff" d="M 168.210938 248.308594 L 169.851562 251.960938 C 169.914062 252.101562 170.011719 252.222656 170.140625 252.3125 C 170.265625 252.402344 170.410156 252.460938 170.566406 252.476562 L 174.585938 252.890625 L 171.582031 255.566406 C 171.464844 255.667969 171.378906 255.800781 171.332031 255.945312 C 171.285156 256.09375 171.273438 256.25 171.308594 256.398438 L 172.148438 260.308594 L 168.652344 258.308594 C 168.515625 258.230469 168.363281 258.191406 168.210938 258.191406 C 168.054688 258.191406 167.902344 258.230469 167.765625 258.308594 L 164.269531 260.308594 L 165.109375 256.398438 C 165.144531 256.25 165.132812 256.09375 165.085938 255.945312 C 165.039062 255.800781 164.953125 255.667969 164.835938 255.566406 L 161.832031 252.890625 L 165.851562 252.476562 C 166.007812 252.460938 166.152344 252.402344 166.277344 252.3125 C 166.40625 252.222656 166.503906 252.101562 166.566406 251.960938 Z M 168.210938 248.308594 " fill-opacity="1" fill-rule="evenodd"/></g><g clip-path="url(#ab721a54f6)"><path fill="#ffffff" d="M 206.96875 248.308594 L 208.609375 251.960938 C 208.675781 252.101562 208.773438 252.222656 208.898438 252.3125 C 209.023438 252.402344 209.171875 252.460938 209.328125 252.476562 L 213.34375 252.890625 L 210.339844 255.566406 C 210.226562 255.667969 210.140625 255.800781 210.089844 255.945312 C 210.042969 256.09375 210.035156 256.25 210.066406 256.398438 L 210.910156 260.308594 L 207.410156 258.308594 C 207.277344 258.230469 207.125 258.191406 206.96875 258.191406 C 206.8125 258.191406 206.660156 258.230469 206.527344 258.308594 L 203.027344 260.308594 L 203.871094 256.398438 C 203.902344 256.25 203.894531 256.09375 203.847656 255.945312 C 203.796875 255.800781 203.710938 255.667969 203.597656 255.566406 L 200.59375 252.890625 L 204.613281 252.476562 C 204.765625 252.460938 204.914062 252.402344 205.039062 252.3125 C 205.164062 252.222656 205.265625 252.101562 205.328125 251.960938 Z M 206.96875 248.308594 " fill-opacity="1" fill-rule="evenodd"/></g><g fill="#ffffff" fill-opacity="1"><g transform="translate(137.285533, 227.564885)"><g><path d="M 6.125 -11.4375 L 10.625 -10.8125 L 10.203125 -7.828125 L 5.703125 -8.453125 L 4.859375 -2.359375 L 10.515625 -1.578125 L 10.109375 1.390625 L 1.1875 0.171875 L 4.0625 -20.625 L 12.984375 -19.40625 L 12.578125 -16.4375 L 6.921875 -17.21875 Z M 6.125 -11.4375 "/></g></g></g><g fill="#ffffff" fill-opacity="1"><g transform="translate(148.465699, 229.116629)"><g><path d="M 3.3125 -20.765625 L 8.5 -20.25 C 10.144531 -20.082031 11.328125 -19.519531 12.046875 -18.5625 C 12.765625 -17.601562 13.035156 -16.28125 12.859375 -14.59375 L 11.796875 -4.015625 C 11.628906 -2.328125 11.097656 -1.085938 10.203125 -0.296875 C 9.304688 0.492188 8.035156 0.804688 6.390625 0.640625 L 1.203125 0.125 Z M 6.28125 -17.453125 L 4.78125 -2.53125 L 6.625 -2.34375 C 7.144531 -2.289062 7.566406 -2.398438 7.890625 -2.671875 C 8.222656 -2.941406 8.425781 -3.453125 8.5 -4.203125 L 9.59375 -15.0625 C 9.675781 -15.8125 9.582031 -16.351562 9.3125 -16.6875 C 9.039062 -17.019531 8.644531 -17.210938 8.125 -17.265625 Z M 6.28125 -17.453125 "/></g></g></g><g fill="#ffffff" fill-opacity="1"><g transform="translate(160.900047, 230.361285)"><g><path d="M 5.625 -20.6875 L 4.625 -4.515625 C 4.570312 -3.765625 4.691406 -3.226562 4.984375 -2.90625 C 5.285156 -2.59375 5.695312 -2.421875 6.21875 -2.390625 C 6.738281 -2.359375 7.160156 -2.476562 7.484375 -2.75 C 7.804688 -3.03125 7.992188 -3.546875 8.046875 -4.296875 L 9.046875 -20.46875 L 12.171875 -20.28125 L 11.1875 -4.328125 C 11.082031 -2.628906 10.585938 -1.351562 9.703125 -0.5 C 8.816406 0.351562 7.5625 0.734375 5.9375 0.640625 C 4.332031 0.535156 3.140625 0.00390625 2.359375 -0.953125 C 1.585938 -1.910156 1.253906 -3.238281 1.359375 -4.9375 L 2.34375 -20.890625 Z M 5.625 -20.6875 "/></g></g></g><g fill="#ffffff" fill-opacity="1"><g transform="translate(173.07317, 231.113925)"><g><path d="M 11.875 0.28125 L 8.546875 0.203125 L 8.078125 -3.625 L 4.03125 -3.71875 L 3.359375 0.078125 L 0.328125 0 L 4.1875 -20.90625 L 9.015625 -20.796875 Z M 4.5 -6.546875 L 7.6875 -6.484375 L 6.34375 -17.140625 Z M 4.5 -6.546875 "/></g></g></g><g fill="#ffffff" fill-opacity="1"><g transform="translate(185.528221, 231.393572)"><g><path d="M 0.5625 -15.96875 C 0.539062 -17.675781 0.925781 -18.988281 1.71875 -19.90625 C 2.507812 -20.820312 3.71875 -21.289062 5.34375 -21.3125 C 6.957031 -21.332031 8.175781 -20.894531 9 -20 C 9.832031 -19.101562 10.257812 -17.800781 10.28125 -16.09375 L 10.296875 -15.4375 L 7.171875 -15.390625 L 7.15625 -16.265625 C 7.144531 -17.023438 6.992188 -17.554688 6.703125 -17.859375 C 6.410156 -18.171875 6.003906 -18.320312 5.484375 -18.3125 C 4.960938 -18.300781 4.554688 -18.140625 4.265625 -17.828125 C 3.984375 -17.523438 3.847656 -16.992188 3.859375 -16.234375 C 3.867188 -15.515625 4.035156 -14.878906 4.359375 -14.328125 C 4.691406 -13.773438 5.101562 -13.257812 5.59375 -12.78125 C 6.082031 -12.300781 6.601562 -11.816406 7.15625 -11.328125 C 7.707031 -10.847656 8.222656 -10.320312 8.703125 -9.75 C 9.191406 -9.175781 9.601562 -8.519531 9.9375 -7.78125 C 10.269531 -7.050781 10.445312 -6.1875 10.46875 -5.1875 C 10.488281 -3.476562 10.085938 -2.164062 9.265625 -1.25 C 8.453125 -0.332031 7.234375 0.132812 5.609375 0.15625 C 3.992188 0.175781 2.765625 -0.257812 1.921875 -1.15625 C 1.078125 -2.050781 0.644531 -3.351562 0.625 -5.0625 L 0.59375 -6.34375 L 3.71875 -6.375 L 3.75 -4.875 C 3.757812 -4.113281 3.921875 -3.585938 4.234375 -3.296875 C 4.546875 -3.003906 4.960938 -2.863281 5.484375 -2.875 C 6.003906 -2.882812 6.414062 -3.035156 6.71875 -3.328125 C 7.03125 -3.628906 7.179688 -4.160156 7.171875 -4.921875 C 7.160156 -5.640625 6.988281 -6.269531 6.65625 -6.8125 C 6.320312 -7.363281 5.910156 -7.878906 5.421875 -8.359375 C 4.941406 -8.847656 4.425781 -9.332031 3.875 -9.8125 C 3.320312 -10.300781 2.796875 -10.832031 2.296875 -11.40625 C 1.804688 -11.976562 1.394531 -12.628906 1.0625 -13.359375 C 0.738281 -14.097656 0.570312 -14.96875 0.5625 -15.96875 Z M 0.5625 -15.96875 "/></g></g></g><g fill="#ffffff" fill-opacity="1"><g transform="translate(196.985064, 231.23263)"><g><path d="M 0 -15.96875 C -0.0820312 -17.675781 0.253906 -19 1.015625 -19.9375 C 1.773438 -20.882812 2.96875 -21.398438 4.59375 -21.484375 C 6.195312 -21.554688 7.425781 -21.160156 8.28125 -20.296875 C 9.144531 -19.441406 9.617188 -18.160156 9.703125 -16.453125 L 9.734375 -15.796875 L 6.609375 -15.640625 L 6.5625 -16.515625 C 6.519531 -17.273438 6.347656 -17.800781 6.046875 -18.09375 C 5.742188 -18.394531 5.335938 -18.53125 4.828125 -18.5 C 4.304688 -18.476562 3.90625 -18.304688 3.625 -17.984375 C 3.351562 -17.660156 3.238281 -17.117188 3.28125 -16.359375 C 3.3125 -15.640625 3.503906 -15.007812 3.859375 -14.46875 C 4.210938 -13.9375 4.632812 -13.4375 5.125 -12.96875 C 5.625 -12.5 6.160156 -12.035156 6.734375 -11.578125 C 7.304688 -11.117188 7.84375 -10.609375 8.34375 -10.046875 C 8.851562 -9.492188 9.285156 -8.851562 9.640625 -8.125 C 10.003906 -7.40625 10.210938 -6.550781 10.265625 -5.5625 C 10.347656 -3.851562 10 -2.523438 9.21875 -1.578125 C 8.4375 -0.628906 7.238281 -0.117188 5.625 -0.046875 C 4.007812 0.0351562 2.757812 -0.351562 1.875 -1.21875 C 1 -2.082031 0.519531 -3.367188 0.4375 -5.078125 L 0.375 -6.359375 L 3.5 -6.515625 L 3.578125 -5.015625 C 3.609375 -4.253906 3.785156 -3.734375 4.109375 -3.453125 C 4.429688 -3.171875 4.851562 -3.039062 5.375 -3.0625 C 5.894531 -3.09375 6.300781 -3.265625 6.59375 -3.578125 C 6.882812 -3.890625 7.015625 -4.425781 6.984375 -5.1875 C 6.941406 -5.90625 6.75 -6.53125 6.40625 -7.0625 C 6.0625 -7.59375 5.632812 -8.085938 5.125 -8.546875 C 4.625 -9.015625 4.085938 -9.476562 3.515625 -9.9375 C 2.953125 -10.40625 2.410156 -10.914062 1.890625 -11.46875 C 1.378906 -12.019531 0.945312 -12.65625 0.59375 -13.375 C 0.238281 -14.101562 0.0390625 -14.96875 0 -15.96875 Z M 0 -15.96875 "/></g></g></g><g fill="#ffffff" fill-opacity="1"><g transform="translate(208.366698, 230.631001)"><g><path d="M -0.390625 -21.03125 L 2.890625 -21.28125 L 4.484375 -0.34375 L 1.203125 -0.09375 Z M -0.390625 -21.03125 "/></g></g></g><g fill="#ffffff" fill-opacity="1"><g transform="translate(214.232872, 230.21783)"><g><path d="M -0.859375 -15.953125 C -1.035156 -17.648438 -0.769531 -18.988281 -0.0625 -19.96875 C 0.644531 -20.957031 1.804688 -21.535156 3.421875 -21.703125 C 5.023438 -21.867188 6.273438 -21.539062 7.171875 -20.71875 C 8.078125 -19.90625 8.617188 -18.648438 8.796875 -16.953125 L 8.859375 -16.296875 L 5.75 -15.984375 L 5.65625 -16.84375 C 5.582031 -17.601562 5.390625 -18.117188 5.078125 -18.390625 C 4.765625 -18.671875 4.347656 -18.785156 3.828125 -18.734375 C 3.304688 -18.679688 2.914062 -18.484375 2.65625 -18.140625 C 2.40625 -17.804688 2.316406 -17.257812 2.390625 -16.5 C 2.472656 -15.789062 2.695312 -15.175781 3.0625 -14.65625 C 3.4375 -14.132812 3.890625 -13.65625 4.421875 -13.21875 C 4.953125 -12.789062 5.515625 -12.359375 6.109375 -11.921875 C 6.703125 -11.492188 7.265625 -11.015625 7.796875 -10.484375 C 8.335938 -9.960938 8.804688 -9.347656 9.203125 -8.640625 C 9.597656 -7.941406 9.847656 -7.09375 9.953125 -6.09375 C 10.128906 -4.394531 9.851562 -3.050781 9.125 -2.0625 C 8.394531 -1.082031 7.222656 -0.507812 5.609375 -0.34375 C 4.003906 -0.175781 2.738281 -0.5 1.8125 -1.3125 C 0.894531 -2.132812 0.347656 -3.394531 0.171875 -5.09375 L 0.03125 -6.375 L 3.140625 -6.6875 L 3.296875 -5.1875 C 3.378906 -4.4375 3.585938 -3.925781 3.921875 -3.65625 C 4.253906 -3.394531 4.679688 -3.289062 5.203125 -3.34375 C 5.722656 -3.394531 6.125 -3.585938 6.40625 -3.921875 C 6.6875 -4.253906 6.785156 -4.796875 6.703125 -5.546875 C 6.628906 -6.265625 6.398438 -6.878906 6.015625 -7.390625 C 5.640625 -7.898438 5.1875 -8.375 4.65625 -8.8125 C 4.125 -9.257812 3.5625 -9.695312 2.96875 -10.125 C 2.382812 -10.550781 1.816406 -11.023438 1.265625 -11.546875 C 0.722656 -12.078125 0.257812 -12.691406 -0.125 -13.390625 C -0.507812 -14.097656 -0.753906 -14.953125 -0.859375 -15.953125 Z M -0.859375 -15.953125 "/></g></g></g><g fill="#ffffff" fill-opacity="1"><g transform="translate(225.623129, 229.030276)"><g><path d="M -2.65625 -20.828125 L 7.453125 -22.234375 L 7.875 -19.265625 L 4.453125 -18.78125 L 6.921875 -0.953125 L 3.65625 -0.5 L 1.1875 -18.328125 L -2.234375 -17.859375 Z M -2.65625 -20.828125 "/></g></g></g></svg>