<svg xmlns="http://www.w3.org/2000/svg" xmlns:xlink="http://www.w3.org/1999/xlink" width="400" zoomAndPan="magnify" viewBox="0 0 300 299.999988" height="400" preserveAspectRatio="xMidYMid meet" version="1.0"><defs><clipPath id="cf0f10b549"><path d="M 0 83 L 118.5 83 L 118.5 142.421875 L 0 142.421875 Z M 0 83 " clip-rule="nonzero"/></clipPath></defs><rect x="-30" width="360" fill="#ffffff" y="-29.999999" height="359.999986" fill-opacity="1"/><rect x="-30" width="360" fill="#ffffff" y="-29.999999" height="359.999986" fill-opacity="1"/><path fill="#000000" d="M 93.394531 34.003906 C 93.394531 35.121094 93.339844 36.234375 93.230469 37.34375 C 93.121094 38.453125 92.957031 39.558594 92.738281 40.652344 C 92.519531 41.746094 92.25 42.828125 91.925781 43.898438 C 91.601562 44.964844 91.222656 46.015625 90.796875 47.046875 C 90.367188 48.078125 89.890625 49.085938 89.363281 50.070312 C 88.835938 51.054688 88.261719 52.011719 87.640625 52.9375 C 87.019531 53.867188 86.355469 54.761719 85.644531 55.625 C 84.933594 56.488281 84.183594 57.3125 83.394531 58.101562 C 82.605469 58.890625 81.777344 59.640625 80.910156 60.347656 C 80.046875 61.058594 79.148438 61.722656 78.21875 62.339844 C 77.289062 62.960938 76.332031 63.535156 75.347656 64.0625 C 74.359375 64.585938 73.351562 65.0625 72.316406 65.492188 C 71.285156 65.917969 70.230469 66.292969 69.160156 66.617188 C 68.089844 66.941406 67.007812 67.210938 65.910156 67.429688 C 64.816406 67.648438 63.710938 67.8125 62.597656 67.921875 C 61.484375 68.03125 60.367188 68.085938 59.25 68.085938 C 58.132812 68.085938 57.015625 68.03125 55.902344 67.921875 C 54.789062 67.8125 53.683594 67.648438 52.589844 67.429688 C 51.492188 67.210938 50.410156 66.941406 49.339844 66.617188 C 48.269531 66.292969 47.214844 65.917969 46.183594 65.492188 C 45.148438 65.0625 44.140625 64.585938 43.152344 64.0625 C 42.167969 63.535156 41.210938 62.960938 40.28125 62.339844 C 39.351562 61.722656 38.453125 61.058594 37.589844 60.347656 C 36.722656 59.640625 35.894531 58.890625 35.105469 58.101562 C 34.316406 57.3125 33.566406 56.488281 32.855469 55.625 C 32.144531 54.761719 31.480469 53.867188 30.859375 52.9375 C 30.238281 52.011719 29.664062 51.054688 29.136719 50.070312 C 28.609375 49.085938 28.132812 48.078125 27.703125 47.046875 C 27.277344 46.015625 26.898438 44.964844 26.574219 43.898438 C 26.25 42.828125 25.980469 41.746094 25.761719 40.652344 C 25.542969 39.558594 25.378906 38.453125 25.269531 37.34375 C 25.160156 36.234375 25.105469 35.121094 25.105469 34.003906 C 25.105469 32.886719 25.160156 31.773438 25.269531 30.664062 C 25.378906 29.550781 25.542969 28.449219 25.761719 27.355469 C 25.980469 26.261719 26.25 25.179688 26.574219 24.109375 C 26.898438 23.042969 27.277344 21.992188 27.703125 20.960938 C 28.132812 19.929688 28.609375 18.921875 29.136719 17.9375 C 29.664062 16.953125 30.238281 15.996094 30.859375 15.070312 C 31.480469 14.140625 32.144531 13.246094 32.855469 12.382812 C 33.566406 11.519531 34.316406 10.695312 35.105469 9.902344 C 35.894531 9.113281 36.722656 8.367188 37.589844 7.65625 C 38.453125 6.949219 39.351562 6.285156 40.28125 5.664062 C 41.210938 5.046875 42.167969 4.472656 43.152344 3.945312 C 44.140625 3.421875 45.148438 2.941406 46.183594 2.515625 C 47.214844 2.089844 48.269531 1.714844 49.339844 1.390625 C 50.410156 1.066406 51.492188 0.792969 52.589844 0.578125 C 53.683594 0.359375 54.789062 0.195312 55.902344 0.0859375 C 57.015625 -0.0234375 58.132812 -0.078125 59.25 -0.078125 C 60.367188 -0.078125 61.484375 -0.0234375 62.597656 0.0859375 C 63.710938 0.195312 64.816406 0.359375 65.910156 0.578125 C 67.007812 0.792969 68.089844 1.066406 69.160156 1.390625 C 70.230469 1.714844 71.285156 2.089844 72.316406 2.515625 C 73.351562 2.941406 74.359375 3.421875 75.347656 3.945312 C 76.332031 4.472656 77.289062 5.046875 78.21875 5.664062 C 79.148438 6.285156 80.046875 6.949219 80.910156 7.65625 C 81.777344 8.367188 82.605469 9.113281 83.394531 9.902344 C 84.183594 10.695312 84.933594 11.519531 85.644531 12.382812 C 86.355469 13.246094 87.019531 14.140625 87.640625 15.070312 C 88.261719 15.996094 88.835938 16.953125 89.363281 17.9375 C 89.890625 18.921875 90.367188 19.929688 90.796875 20.960938 C 91.222656 21.992188 91.601562 23.042969 91.925781 24.109375 C 92.25 25.179688 92.519531 26.261719 92.738281 27.355469 C 92.957031 28.449219 93.121094 29.550781 93.230469 30.664062 C 93.339844 31.773438 93.394531 32.886719 93.394531 34.003906 Z M 93.394531 34.003906 " fill-opacity="1" fill-rule="nonzero"/><g clip-path="url(#cf0f10b549)"><path fill="#000000" d="M 0.03125 142.421875 C 0.03125 109.777344 26.546875 83.3125 59.25 83.3125 C 91.953125 83.3125 118.46875 109.777344 118.46875 142.421875 Z M 0.03125 142.421875 " fill-opacity="1" fill-rule="nonzero"/></g></svg>