<svg xmlns="http://www.w3.org/2000/svg" xmlns:xlink="http://www.w3.org/1999/xlink" width="6912" zoomAndPan="magnify" viewBox="0 0 5184 2592.000001" height="3456" preserveAspectRatio="xMidYMid meet" version="1.0"><defs><clipPath id="49c713faa4"><path d="M 1673.714844 614.464844 L 2640 614.464844 L 2640 1840.242188 L 1673.714844 1840.242188 Z M 1673.714844 614.464844 " clip-rule="nonzero"/></clipPath></defs><g clip-path="url(#49c713faa4)"><path fill="#2e2d2d" d="M 2552.589844 613.789062 L 1761.125 613.789062 C 1713.027344 613.789062 1673.929688 652.925781 1673.929688 701.039062 L 1673.929688 1753.628906 C 1673.929688 1801.738281 1713.027344 1840.875 1761.125 1840.875 L 2552.589844 1840.875 C 2600.6875 1840.875 2639.8125 1801.738281 2639.8125 1753.628906 L 2639.8125 1569.617188 L 2581.296875 1592.367188 L 2581.296875 1753.628906 C 2581.296875 1769.476562 2568.40625 1782.367188 2552.589844 1782.367188 L 1761.125 1782.367188 C 1745.308594 1782.367188 1732.417969 1769.476562 1732.417969 1753.628906 L 1732.417969 701.039062 C 1732.417969 685.21875 1745.308594 672.296875 1761.125 672.296875 L 2552.589844 672.296875 C 2568.40625 672.296875 2581.296875 685.21875 2581.296875 701.039062 L 2581.296875 1387.3125 L 2639.8125 1364.59375 L 2639.8125 701.039062 C 2639.8125 652.925781 2600.6875 613.789062 2552.589844 613.789062 " fill-opacity="1" fill-rule="nonzero"/></g><path fill="#2e2d2d" d="M 2351.308594 788.484375 C 2362.46875 788.484375 2371.554688 779.425781 2371.554688 768.234375 C 2371.554688 757.042969 2362.46875 747.984375 2351.308594 747.984375 L 1962.433594 747.984375 C 1951.246094 747.984375 1942.1875 757.042969 1942.1875 768.234375 C 1942.1875 779.425781 1951.246094 788.484375 1962.433594 788.484375 L 2351.308594 788.484375 " fill-opacity="1" fill-rule="nonzero"/><path fill="#2e2d2d" d="M 1856.296875 883.910156 C 1856.296875 895.101562 1865.355469 904.160156 1876.542969 904.160156 L 2437.171875 904.160156 C 2448.355469 904.160156 2457.441406 895.101562 2457.441406 883.910156 C 2457.441406 872.71875 2448.355469 863.660156 2437.171875 863.660156 L 1876.542969 863.660156 C 1865.355469 863.660156 1856.296875 872.71875 1856.296875 883.910156 " fill-opacity="1" fill-rule="nonzero"/><path fill="#2e2d2d" d="M 1962.433594 979.308594 C 1951.246094 979.308594 1942.1875 988.398438 1942.1875 999.585938 C 1942.1875 1010.777344 1951.246094 1019.835938 1962.433594 1019.835938 L 2351.308594 1019.835938 C 2362.46875 1019.835938 2371.554688 1010.777344 2371.554688 999.585938 C 2371.554688 988.398438 2362.46875 979.308594 2351.308594 979.308594 L 1962.433594 979.308594 " fill-opacity="1" fill-rule="nonzero"/><path fill="#2e2d2d" d="M 1876.542969 1135.484375 L 2437.171875 1135.484375 C 2448.355469 1135.484375 2457.441406 1126.425781 2457.441406 1115.234375 C 2457.441406 1104.042969 2448.355469 1094.984375 2437.171875 1094.984375 L 1876.542969 1094.984375 C 1865.355469 1094.984375 1856.296875 1104.042969 1856.296875 1115.234375 C 1856.296875 1126.425781 1865.355469 1135.484375 1876.542969 1135.484375 " fill-opacity="1" fill-rule="nonzero"/><path fill="#2e2d2d" d="M 2516.898438 1210.660156 L 1796.816406 1210.660156 C 1785.628906 1210.660156 1776.570312 1219.722656 1776.570312 1230.910156 C 1776.570312 1242.101562 1785.628906 1251.160156 1796.816406 1251.160156 L 2516.898438 1251.160156 C 2528.085938 1251.160156 2537.171875 1242.101562 2537.171875 1230.910156 C 2537.171875 1219.722656 2528.085938 1210.660156 2516.898438 1210.660156 " fill-opacity="1" fill-rule="nonzero"/><path fill="#2e2d2d" d="M 2516.898438 1326.308594 L 1796.816406 1326.308594 C 1785.628906 1326.308594 1776.570312 1335.398438 1776.570312 1346.585938 C 1776.570312 1357.777344 1785.628906 1366.835938 1796.816406 1366.835938 L 2516.898438 1366.835938 C 2528.085938 1366.835938 2537.171875 1357.777344 2537.171875 1346.585938 C 2537.171875 1335.398438 2528.085938 1326.308594 2516.898438 1326.308594 " fill-opacity="1" fill-rule="nonzero"/><path fill="#2e2d2d" d="M 2790.808594 1569.476562 C 2791.40625 1569.136719 2851.03125 1534.941406 2955.460938 1490.691406 C 2995.753906 1473.625 3022.753906 1450.988281 3035.871094 1423.296875 C 3036.953125 1421.109375 3037.890625 1418.867188 3038.769531 1416.566406 C 3043.710938 1403.644531 3044.988281 1391.515625 3044.589844 1381.320312 C 3054.667969 1374.050781 3062.335938 1364.222656 3067.078125 1353.148438 C 3073.777344 1337.46875 3074.574219 1319.265625 3067.929688 1302.140625 C 3054.640625 1267.917969 3016.421875 1250.5625 2981.925781 1263.117188 L 2687.457031 1369.960938 L 2741.375 1508.925781 L 3007.792969 1398.5625 C 3007.308594 1400.351562 3006.710938 1402.167969 3006.03125 1404.042969 C 2997.796875 1425.542969 2976.160156 1443.832031 2941.804688 1458.371094 C 2901.144531 1475.582031 2867.328125 1491.230469 2840.925781 1504.070312 L 2840.839844 1504.097656 C 2798.164062 1524.832031 2774.851562 1538.207031 2773.320312 1539.085938 C 2765.710938 1543.460938 2762.644531 1552.664062 2765.710938 1560.617188 C 2766.050781 1561.4375 2766.449219 1562.261719 2766.875 1563.03125 C 2771.730469 1571.4375 2782.460938 1574.304688 2790.808594 1569.476562 " fill-opacity="1" fill-rule="nonzero"/><path fill="#2e2d2d" d="M 2254.65625 1669.84375 L 2218.796875 1577.457031 C 2195.683594 1586.433594 2176.746094 1603.613281 2165.558594 1625.710938 L 2163.03125 1630.707031 L 2134.980469 1658.117188 C 2131.742188 1661.269531 2133.871094 1666.75 2138.386719 1666.890625 L 2177.597656 1668.167969 L 2182.824219 1670.15625 C 2205.964844 1678.933594 2231.574219 1678.820312 2254.65625 1669.84375 " fill-opacity="1" fill-rule="nonzero"/><path fill="#2e2d2d" d="M 2288.984375 1637.183594 C 2284.726562 1638.832031 2279.957031 1636.730469 2278.308594 1632.46875 C 2276.664062 1628.238281 2278.761719 1623.4375 2283.023438 1621.789062 L 2381.546875 1583.507812 C 2385.804688 1581.859375 2390.578125 1583.988281 2392.222656 1588.222656 C 2393.898438 1592.480469 2391.769531 1597.28125 2387.539062 1598.929688 Z M 2272.148438 1593.789062 C 2267.890625 1595.433594 2263.117188 1593.332031 2261.445312 1589.074219 C 2259.796875 1584.8125 2261.925781 1580.042969 2266.15625 1578.367188 L 2364.683594 1540.109375 C 2368.941406 1538.460938 2373.738281 1540.566406 2375.386719 1544.824219 C 2377.03125 1549.085938 2374.933594 1553.855469 2370.671875 1555.503906 Z M 2377.769531 1507.761719 L 2234.667969 1563.3125 L 2275.925781 1669.53125 L 2419 1613.980469 L 2377.769531 1507.761719 " fill-opacity="1" fill-rule="nonzero"/><path fill="#2e2d2d" d="M 2714.972656 1499.042969 L 2438.589844 1606.367188 L 2397.363281 1500.121094 L 2673.742188 1392.796875 L 2714.972656 1499.042969 " fill-opacity="1" fill-rule="nonzero"/></svg>